<svg width="86" height="86" viewBox="0 0 86 86" fill="none" xmlns="http://www.w3.org/2000/svg">
<path d="M43.0449 83.0898C65.1611 83.0898 83.0898 65.1611 83.0898 43.0449C83.0898 20.9287 65.1611 3 43.0449 3C20.9287 3 3 20.9287 3 43.0449C3 65.1611 20.9287 83.0898 43.0449 83.0898Z" stroke="#58585B" stroke-width="5" stroke-miterlimit="10"/>
<path d="M46.1054 46.0381C44.8602 46.0381 43.8438 45.0217 43.8438 43.7764V17.9668C43.8438 16.7242 44.8602 15.7051 46.1054 15.7051C47.348 15.7051 48.3671 16.7215 48.3671 17.9668V43.7764C48.3671 45.019 47.348 46.0381 46.1054 46.0381Z" fill="#58585B"/>
<path d="M21.7578 43.7763C21.7578 42.5311 22.7742 41.5146 24.0195 41.5146H46.1041C47.3467 41.5146 48.3657 42.5311 48.3657 43.7763C48.3657 45.0189 47.3493 46.038 46.1041 46.038H24.0195C22.7742 46.038 21.7578 45.0189 21.7578 43.7763Z" fill="#58585B"/>
</svg>
