<svg width="134" height="159" viewBox="0 0 134 159" fill="none" xmlns="http://www.w3.org/2000/svg">
<path d="M16.0089 92.067L4.81034 87.2031C3.35604 86.5724 2.63111 84.7206 3.18704 83.0708L14.817 48.6046C15.3729 46.9547 17.0051 46.1323 18.4594 46.763L29.658 51.6269C31.1123 52.2576 31.8372 54.1093 31.2813 55.7592L19.6469 90.2253C19.0909 91.8702 17.4588 92.6977 16.0089 92.067Z" stroke="#545457" stroke-width="5" stroke-miterlimit="10"/>
<path d="M127.977 89.1552L117.802 92.3844C115.925 92.9798 113.977 91.7386 113.452 89.6093L105.069 55.6175C104.544 53.4882 105.638 51.2783 107.515 50.6829L117.691 47.4538C119.567 46.8584 121.515 48.0996 122.04 50.2288L130.424 84.2207C130.948 86.3449 129.854 88.5548 127.977 89.1552Z" stroke="#545457" stroke-width="5" stroke-miterlimit="10"/>
<path d="M98.289 86.7268C103.626 93.7906 113.726 90.738 113.726 90.738L105.449 57.175C105.449 57.175 94.5087 59.2286 86.9481 55.6967C79.3875 52.1648 71.8269 55.6967 71.8269 55.6967L55.8163 70.8333C55.8163 70.8333 50.9241 81.429 61.5979 78.9062L71.3822 72.8516C71.3822 72.8516 74.9401 70.3288 78.498 72.8516C82.0559 75.3743 101.18 88.9973 101.18 88.9973C101.18 88.9973 106.961 99.0884 95.3981 99.0884C95.3981 99.0884 96.2876 106.152 89.1718 106.152C89.1718 106.152 89.6165 112.459 83.6125 112.459L78.9428 111.702C78.9428 111.702 80.277 119.271 73.1611 115.234C66.0453 111.198 65.6005 110.693 65.6005 110.693L63.786 109.013" stroke="#545457" stroke-width="5" stroke-miterlimit="10"/>
<path d="M70.937 56.2023C71.8265 52.6704 68.2686 51.6613 66.4896 51.1568C64.7106 50.6522 55.8158 53.6796 48.7 57.2114C41.5841 60.7433 30.9415 56.7472 30.9415 56.7472L20.459 89.0186L29.5406 93.494" stroke="#545457" stroke-width="5" stroke-miterlimit="10"/>
<path d="M29.1168 101.596C30.8157 102.959 33.1862 102.499 34.387 100.577L38.5008 93.9876C39.7016 92.0602 39.2969 89.3709 37.6024 88.0086C35.9035 86.6463 33.5331 87.1055 32.3323 89.0278L28.2184 95.6173C27.0176 97.5397 27.4223 100.229 29.1168 101.596Z" stroke="#545457" stroke-width="5" stroke-miterlimit="10"/>
<path d="M35.7867 110.174C37.4856 111.537 39.8561 111.077 41.0569 109.155L51.0813 93.095C52.2821 91.1676 51.8774 88.4784 50.183 87.1161C48.4841 85.7538 46.1136 86.2129 44.9128 88.1353L34.8883 104.195C33.6875 106.118 34.0923 108.807 35.7867 110.174Z" stroke="#545457" stroke-width="5" stroke-miterlimit="10"/>
<path d="M45.5699 113.201C47.2688 114.564 49.6393 114.104 50.8401 112.182L58.0627 100.613C59.2635 98.6852 58.8588 95.9959 57.1643 94.6336C55.4654 93.2713 53.0949 93.7305 51.8941 95.6528L44.6715 107.222C43.4707 109.145 43.8755 111.834 45.5699 113.201Z" stroke="#545457" stroke-width="5" stroke-miterlimit="10"/>
<path d="M54.0211 117.238C55.72 118.6 58.0905 118.141 59.2913 116.218L65.0773 106.945C66.2781 105.017 65.8734 102.328 64.179 100.966C62.48 99.6034 60.1096 100.063 58.9088 101.985L53.1227 111.259C51.9219 113.181 52.3266 115.87 54.0211 117.238Z" stroke="#545456" stroke-width="5" stroke-miterlimit="10"/>
<path d="M78.0861 113.359L71.3305 108.934C70.5433 108.419 70.272 107.274 70.7256 106.381C71.1793 105.488 72.1888 105.18 72.976 105.695L79.7316 110.12C80.5188 110.634 80.7901 111.78 80.3365 112.673C79.8828 113.571 78.8777 113.873 78.0861 113.359Z" fill="#545356"/>
<path d="M87.3067 107.395L68.9701 95.3861C68.2407 94.9068 67.9872 93.8371 68.4097 93.0046C68.8322 92.1771 69.7751 91.8895 70.5089 92.3689L88.8455 104.377C89.5749 104.857 89.8284 105.926 89.4059 106.759C88.9789 107.586 88.0361 107.874 87.3067 107.395Z" fill="#545356"/>
<path d="M94.029 100.511L76.3594 88.0634C75.5545 87.4983 75.3054 86.2824 75.8035 85.3691C76.3016 84.4559 77.3734 84.1733 78.1784 84.7384L95.848 97.1858C96.6529 97.7509 96.902 98.9669 96.4039 99.8801C95.9013 100.793 94.8339 101.081 94.029 100.511Z" fill="#545356"/>
</svg>
