<svg width="117" height="61" viewBox="0 0 117 61" fill="none" xmlns="http://www.w3.org/2000/svg">
<path d="M14.3206 37.9134L4.57539 34.1825C3.30983 33.6987 2.67899 32.2784 3.16276 31.0128L13.2834 4.57539C13.7671 3.30983 15.1875 2.67899 16.4531 3.16276L26.1983 6.89365C27.4638 7.37742 28.0947 8.79779 27.6109 10.0634L17.4864 36.5008C17.0026 37.7625 15.5823 38.3972 14.3206 37.9134Z" stroke="#393030" stroke-width="5" stroke-miterlimit="10"/>
<path d="M111.757 35.6798L102.902 38.1567C101.269 38.6134 99.5734 37.6613 99.1167 36.0281L91.8214 9.95447C91.3647 8.32124 92.3168 6.62609 93.95 6.16941L102.805 3.69247C104.438 3.23579 106.133 4.18786 106.59 5.82109L113.885 31.8947C114.342 33.5241 113.39 35.2192 111.757 35.6798Z" stroke="#393030" stroke-width="5" stroke-miterlimit="10"/>
<path d="M85.9226 33.8184C90.5668 39.2367 99.3561 36.8952 99.3561 36.8952L92.1536 11.1505C92.1536 11.1505 82.6329 12.7257 76.0535 10.0166C69.4742 7.30742 62.8948 10.0166 62.8948 10.0166L48.9621 21.6272C48.9621 21.6272 44.7048 29.7546 53.9933 27.8195L62.5078 23.1753C62.5078 23.1753 65.604 21.2402 68.7001 23.1753C71.7963 25.1104 88.4382 35.56 88.4382 35.56C88.4382 35.56 93.4695 43.3004 83.4069 43.3004C83.4069 43.3004 84.181 48.7187 77.9886 48.7187C77.9886 48.7187 78.3757 53.5565 73.1509 53.5565L69.0872 52.9759C69.0872 52.9759 70.2482 58.7812 64.0559 55.6851C57.8635 52.5889 57.4765 52.2019 57.4765 52.2019L55.8975 50.9131" stroke="#393030" stroke-width="5" stroke-miterlimit="10"/>
<path d="M62.1203 10.4048C62.8943 7.6956 59.7981 6.92156 58.2501 6.53454C56.702 6.14752 48.9615 8.46965 42.7692 11.1788C36.5769 13.8879 27.3154 10.8227 27.3154 10.8227L18.1934 35.5766L26.0963 39.0095" stroke="#393030" stroke-width="5" stroke-miterlimit="10"/>
<path d="M25.7269 45.2241C27.2053 46.269 29.2682 45.9168 30.3131 44.4423L33.8931 39.3878C34.938 37.9094 34.5858 35.8465 33.1113 34.8016C31.6329 33.7566 29.57 34.1088 28.5251 35.5834L24.9451 40.6379C23.9002 42.1124 24.2524 44.1752 25.7269 45.2241Z" stroke="#393030" stroke-width="5" stroke-miterlimit="10"/>
<path d="M31.5316 51.8039C33.01 52.8488 35.0729 52.4966 36.1178 51.0221L44.8413 38.7032C45.8862 37.2248 45.534 35.162 44.0595 34.117C42.5811 33.0721 40.5182 33.4242 39.4733 34.8988L30.7498 47.2177C29.7049 48.6922 30.0571 50.7551 31.5316 51.8039Z" stroke="#393030" stroke-width="5" stroke-miterlimit="10"/>
<path d="M40.0453 54.126C41.5237 55.171 43.5865 54.8188 44.6315 53.3442L50.9167 44.4698C51.9617 42.9914 51.6095 40.9286 50.1349 39.8836C48.6565 38.8387 46.5937 39.1908 45.5487 40.6654L39.2635 49.5398C38.2185 51.0143 38.5707 53.0772 40.0453 54.126Z" stroke="#393030" stroke-width="5" stroke-miterlimit="10"/>
<path d="M47.3988 57.2225C48.8772 58.2674 50.94 57.9152 51.985 56.4407L57.0201 49.3272C58.0651 47.8488 57.7129 45.786 56.2384 44.741C54.7599 43.6961 52.6971 44.0483 51.6522 45.5228L46.617 52.6363C45.5721 54.1108 45.9242 56.1736 47.3988 57.2225Z" stroke="#393030" stroke-width="5" stroke-miterlimit="10"/>
<path d="M68.3406 54.2459L62.4617 50.8517C61.7767 50.457 61.5406 49.5784 61.9354 48.8934C62.3302 48.2084 63.2087 47.9723 63.8937 48.367L69.7726 51.7612C70.4576 52.156 70.6937 53.0345 70.2989 53.7195C69.9042 54.4084 69.0295 54.6407 68.3406 54.2459Z" fill="#393030"/>
<path d="M76.3648 49.6713L60.4079 40.4602C59.7732 40.0926 59.5526 39.2721 59.9203 38.6335C60.2879 37.9988 61.1084 37.7782 61.747 38.1458L77.7039 47.3569C78.3386 47.7246 78.5592 48.5451 78.1915 49.1837C77.82 49.8184 76.9995 50.039 76.3648 49.6713Z" fill="#393030"/>
<path d="M82.2143 44.3919L66.838 34.8441C66.1375 34.4106 65.9207 33.4779 66.3542 32.7774C66.7877 32.0769 67.7204 31.8602 68.4209 32.2936L83.7972 41.8415C84.4977 42.2749 84.7145 43.2076 84.281 43.9081C83.8437 44.6087 82.9148 44.8293 82.2143 44.3919Z" fill="#393030"/>
</svg>
