<svg width="137" height="79" viewBox="0 0 137 79" fill="none" xmlns="http://www.w3.org/2000/svg">
<path d="M16.6448 49.4904L5.20651 44.5224C3.72108 43.8782 2.98064 41.9868 3.54846 40.3016L15.4273 5.09778C15.9952 3.41257 17.6623 2.57254 19.1477 3.21674L30.586 8.18475C32.0714 8.82894 32.8118 10.7203 32.244 12.4055L20.3606 47.6093C19.7928 49.2894 18.1256 50.1346 16.6448 49.4904Z" stroke="#545457" stroke-width="5.10702" stroke-miterlimit="10"/>
<path d="M131.012 46.5158L120.618 49.8141C118.701 50.4222 116.712 49.1544 116.176 46.9796L107.613 12.2602C107.077 10.0854 108.194 7.82818 110.111 7.22006L120.505 3.92179C122.422 3.31368 124.411 4.58145 124.947 6.75624L133.51 41.4757C134.046 43.6453 132.929 45.9026 131.012 46.5158Z" stroke="#545457" stroke-width="5.10702" stroke-miterlimit="10"/>
<path d="M100.687 44.0359C106.138 51.2509 116.454 48.133 116.454 48.133L108 13.8516C108 13.8516 96.8256 15.9491 89.1032 12.3416C81.3808 8.73413 73.6584 12.3416 73.6584 12.3416L57.3051 27.8022C57.3051 27.8022 52.3082 38.6247 63.2104 36.0479L73.2041 29.8637C73.2041 29.8637 76.8382 27.2869 80.4723 29.8637C84.1063 32.4404 103.639 46.355 103.639 46.355C103.639 46.355 109.545 56.6621 97.7341 56.6621C97.7341 56.6621 98.6426 63.877 91.3745 63.877C91.3745 63.877 91.8288 70.319 85.6963 70.319L80.9265 69.5459C80.9265 69.5459 82.2893 77.2763 75.0212 73.1534C67.753 69.0306 67.2988 68.5152 67.2988 68.5152L65.4454 66.7991" stroke="#545457" stroke-width="5.10702" stroke-miterlimit="10"/>
<path d="M72.7479 12.8584C73.6564 9.2509 70.0223 8.22019 68.2053 7.70484C66.3882 7.18948 57.3031 10.2816 50.0349 13.8891C42.7668 17.4966 31.8963 13.415 31.8963 13.415L21.1895 46.377L30.4654 50.9482" stroke="#545457" stroke-width="5.10702" stroke-miterlimit="10"/>
<path d="M30.0336 59.2223C31.7689 60.6137 34.1901 60.1447 35.4166 58.1812L39.6185 51.4507C40.845 49.4821 40.4316 46.7352 38.7009 45.3438C36.9656 43.9523 34.5444 44.4213 33.3179 46.3848L29.116 53.1153C27.8895 55.0788 28.3029 57.8257 30.0336 59.2223Z" stroke="#545457" stroke-width="5.10702" stroke-miterlimit="10"/>
<path d="M36.8442 67.9853C38.5794 69.3768 41.0006 68.9078 42.2271 66.9443L52.4661 50.5406C53.6926 48.5719 53.2793 45.8251 51.5485 44.4336C49.8133 43.0422 47.3921 43.5111 46.1656 45.4746L35.9266 61.8784C34.7001 63.8419 35.1134 66.5887 36.8442 67.9853Z" stroke="#545457" stroke-width="5.10702" stroke-miterlimit="10"/>
<path d="M46.8383 71.0764C48.5736 72.4678 50.9948 71.9989 52.2213 70.0354L59.5985 58.2183C60.825 56.2496 60.4116 53.5028 58.6809 52.1113C56.9456 50.7199 54.5244 51.1889 53.2979 53.1524L45.9207 64.9694C44.6942 66.9329 45.1076 69.6798 46.8383 71.0764Z" stroke="#545457" stroke-width="5.10702" stroke-miterlimit="10"/>
<path d="M55.4711 75.1983C57.2064 76.5898 59.6276 76.1208 60.8541 74.1573L66.764 64.6851C67.9905 62.7164 67.5771 59.9696 65.8464 58.5781C64.1111 57.1867 61.6899 57.6557 60.4634 59.6192L54.5535 69.0914C53.327 71.0549 53.7404 73.8017 55.4711 75.1983Z" stroke="#545456" stroke-width="5.10702" stroke-miterlimit="10"/>
<path d="M80.0511 71.2372L73.1509 66.7176C72.3468 66.1919 72.0697 65.022 72.5331 64.1099C72.9964 63.1977 74.0276 62.8833 74.8316 63.409L81.7318 67.9286C82.5359 68.4543 82.813 69.6241 82.3496 70.5363C81.8863 71.4537 80.8597 71.7629 80.0511 71.2372Z" fill="#545356"/>
<path d="M89.4695 65.1469L70.7404 52.8814C69.9954 52.3918 69.7364 51.2993 70.168 50.449C70.5995 49.6038 71.5626 49.31 72.3121 49.7996L91.0412 62.065C91.7862 62.5546 92.0451 63.6472 91.6136 64.4975C91.1775 65.3427 90.2144 65.6364 89.4695 65.1469Z" fill="#545356"/>
<path d="M96.3347 58.1144L78.287 45.4006C77.4648 44.8234 77.2104 43.5814 77.7192 42.6486C78.2279 41.7158 79.3227 41.4272 80.1449 42.0044L98.1926 54.7182C99.0148 55.2954 99.2692 56.5374 98.7604 57.4702C98.2471 58.403 97.1569 58.6967 96.3347 58.1144Z" fill="#545356"/>
</svg>
