<svg width="79" height="79" viewBox="0 0 79 79" fill="none" xmlns="http://www.w3.org/2000/svg">
<path d="M18.3529 55.0823V46.1641C18.3529 45.8698 18.1157 45.5844 17.8268 45.5309C17.8268 45.5309 2.47858 42.686 3.01367 27.7035C3.54876 12.7209 23.1902 18.3697 23.1902 18.3697C23.4738 18.4517 23.6878 18.2769 23.6682 17.9844C23.6682 17.9844 22.6354 3.0001 40.6502 3.0001C40.6502 3.0001 54.3842 2.82174 56.3462 17.4476C56.3462 17.4476 75.7878 14.237 76.3229 29.933C76.858 45.629 62.2322 45.4578 62.2322 45.4578C61.9379 45.4542 61.6971 45.6914 61.6971 45.9857V56.3308C61.6971 56.6251 61.4706 56.7839 61.1941 56.684C61.1941 56.684 45.1984 50.8907 26.827 54.6364" stroke="#474747" stroke-width="5" stroke-miterlimit="10"/>
<path d="M27.2715 45.7187C27.2715 45.7187 40.8271 40.7245 54.026 45.7187" stroke="#474747" stroke-width="5" stroke-miterlimit="10"/>
<path d="M39.5781 65.7615C39.5781 65.7615 44.929 60.9456 52.4203 65.7615C59.9116 70.5773 62.7654 72.7176 68.6514 67.01C68.6514 67.01 68.1163 78.2469 54.5607 78.2469C54.5607 78.2469 45.2858 78.2469 39.5781 72.3609V65.7615V65.7615Z" fill="#393030"/>
<path d="M39.5772 65.7605C39.5772 65.7605 34.2263 60.9447 26.735 65.7605C19.2437 70.5763 16.3899 72.7167 10.5039 67.009C10.5039 67.009 11.039 78.2459 24.5946 78.2459C24.5946 78.2459 33.8695 78.2459 39.5772 72.3599V65.7605Z" fill="#393030"/>
</svg>
