<svg width="9" height="11" viewBox="0 0 9 11" fill="none" xmlns="http://www.w3.org/2000/svg">
<path d="M4.50034 0.00642346H4.49966C2.74164 -0.122266 -0.6385 1.68844 0.105279 4.9212C0.842973 8.12874 4.44151 10.9541 4.49966 10.9994C4.50034 11 4.50034 11 4.50034 11V10.9994C4.55849 10.9541 8.15703 8.12874 8.89472 4.9212C9.6385 1.68844 6.25836 -0.122266 4.50034 0.00642346ZM4.46653 6.14989C3.40225 6.14989 2.53947 5.32473 2.53947 4.30685C2.53947 3.28898 3.40225 2.46381 4.46653 2.46381C5.53081 2.46381 6.39359 3.28898 6.39359 4.30685C6.39359 5.32473 5.53081 6.14989 4.46653 6.14989Z" fill="#1A1A1A"/>
</svg>
