<svg width="1037" height="232" viewBox="0 0 1037 232" fill="none" xmlns="http://www.w3.org/2000/svg">
<path d="M112.601 41.2818V150H87.4405V105.426H38.0514V150H12.8909V41.2818H38.0514V84.1478H87.4405V41.2818H112.601ZM209.922 126.703H159.446L149.816 150H124.035L172.492 41.2818H197.342L245.954 150H219.551L209.922 126.703ZM202.001 107.6L184.761 65.9764L167.522 107.6H202.001ZM282.394 61.4723V90.205H332.715V110.396H282.394V150H257.234V41.2818H339.394V61.4723H282.394Z" fill="#2C2C2C"/>
<path d="M491.32 42.2979L480.82 42.3979L407.85 127.718L355.74 48.1379V105.628L368.11 120.848L368.1 120.978L407.97 175.828L459.08 122.128L459.29 197.718H491.74L491.32 42.2979Z" fill="#FFBA3A"/>
<path d="M600.746 172.644V192.835H516.567V84.1168H598.727V104.307H541.572V127.915H592.048V147.484H541.572V172.644H600.746ZM671.888 154.318V192.835H646.728V154.007L604.638 84.1168H631.352L660.395 132.419L689.438 84.1168H714.133L671.888 154.318ZM743.179 194.699C735.827 194.699 729.045 193.353 722.833 190.661C716.724 187.865 711.702 183.93 707.767 178.857L721.746 162.083C727.647 170.056 734.378 174.042 741.936 174.042C752.187 174.042 757.312 168.037 757.312 156.026V104.307H719.105V84.1168H782.317V154.628C782.317 167.985 779.004 178.029 772.377 184.759C765.751 191.385 756.018 194.699 743.179 194.699ZM876.493 169.538H826.017L816.387 192.835H790.606L839.063 84.1168H863.913L912.525 192.835H886.122L876.493 169.538ZM868.572 150.435L851.333 108.811L834.093 150.435H868.572ZM1023.51 84.1168V192.835H1002.86L948.655 126.827V192.835H923.805V84.1168H944.617L998.665 150.124V84.1168H1023.51Z" fill="#2C2C2C"/>
</svg>
