<svg width="18" height="13" viewBox="0 0 18 13" fill="none" xmlns="http://www.w3.org/2000/svg">
<path d="M16.9738 11.2012C16.9738 11.8732 16.424 12.4229 15.7521 12.4229H2.2217C1.54977 12.4229 1 11.8732 1 11.2012V2.2217C1 1.54977 1.54977 1 2.2217 1H15.7521C16.424 1 16.9738 1.54977 16.9738 2.2217V11.2012Z" fill="#1A1A1A"/>
<path d="M16.9738 11.2012C16.9738 11.8732 16.424 12.4229 15.7521 12.4229H2.2217C1.54977 12.4229 1 11.8732 1 11.2012V2.2217C1 1.54977 1.54977 1 2.2217 1H15.7521C16.424 1 16.9738 1.54977 16.9738 2.2217V11.2012Z" stroke="white" stroke-miterlimit="10"/>
<path d="M1.48828 1.30469L8.97121 8.84871L16.6069 1.30469" stroke="white" stroke-miterlimit="10"/>
<path d="M1.83984 12.4223L7.3256 7.18945" stroke="white" stroke-miterlimit="10"/>
<path d="M16.06 12.4223L10.5742 7.18945" stroke="white" stroke-miterlimit="10"/>
</svg>
