<svg width="11" height="11" viewBox="0 0 11 11" fill="none" xmlns="http://www.w3.org/2000/svg">
<path d="M0.0885383 3.25266C0.0885383 3.25266 -0.430429 1.75164 1.04453 0.359795C1.04453 0.359795 1.42693 -0.0495718 2.49218 0.00501049C2.49218 0.00501049 2.62875 0.0868839 2.76532 0.359795C2.90189 0.632707 3.63937 1.91539 3.63937 1.91539C3.63937 1.91539 3.93982 2.32476 3.99445 2.48851C4.04908 2.65225 4.02176 2.816 3.72131 3.08891C3.42085 3.36182 2.84726 3.77119 2.68337 3.98952C2.51949 4.20785 2.62875 4.3716 2.71069 4.58992C2.79263 4.80825 3.3116 5.57241 3.3116 5.57241C3.3116 5.57241 4.75924 7.56466 6.67123 8.38339C6.67123 8.38339 6.91705 8.49256 7.35408 7.89215C7.7911 7.29175 8.22813 6.99155 8.22813 6.99155C8.22813 6.99155 8.41933 6.8278 8.93829 7.26446C9.45726 7.70112 10.741 8.24694 10.741 8.24694C10.741 8.24694 11.0688 8.3561 10.9868 8.82005C10.9049 9.284 10.8776 9.93899 10.2221 10.2938C9.56652 10.6486 9.51189 10.8396 8.58321 10.9761C7.65453 11.1125 6.88974 10.6213 6.88974 10.6213C6.88974 10.6213 1.5635 9.25671 0.0885383 3.25266Z" fill="#1A1A1A"/>
</svg>
